<?xml version="1.0" encoding="UTF-8"?>
<svg xmlns="http://www.w3.org/2000/svg" width="1660" height="1020" viewBox="0 0 1660 1020" font-family="Helvetica,Arial,sans-serif">
<defs>
  <marker id="a" markerWidth="6" markerHeight="5" refX="6" refY="2.5" orient="auto"><polygon points="0 0,6 2.5,0 5" fill="#333"/></marker>
  <marker id="ab" markerWidth="6" markerHeight="5" refX="6" refY="2.5" orient="auto"><polygon points="0 0,6 2.5,0 5" fill="#1a6bcc"/></marker>
  <marker id="ad" markerWidth="6" markerHeight="5" refX="6" refY="2.5" orient="auto"><polygon points="0 0,6 2.5,0 5" fill="#999"/></marker>
</defs>
<rect width="1660" height="1020" fill="#fff"/>
<rect x="55" y="45" width="1590" height="950" fill="#f7f9fc" stroke="#223" stroke-width="2.5" rx="6"/>
<text x="850" y="73" text-anchor="middle" font-size="17" fill="#223" font-weight="bold" font-style="normal">module  DmaEngine</text>
<line x1="65" y1="80" x2="1635" y2="80" stroke="#bbc" stroke-width="1"/>
<rect x="130" y="90" width="260" height="195" fill="#d4edda" stroke="#333" stroke-width="1.8" rx="3"/>
<text x="260" y="116" text-anchor="middle" font-size="13" fill="#111" font-weight="bold" font-style="normal">regs</text>
<text x="260" y="134" text-anchor="middle" font-size="10" fill="#555" font-weight="normal" font-style="italic">DmaRegs · regfile</text>
<line x1="138" y1="140" x2="382" y2="140" stroke="#aaa" stroke-width="1"/>
<rect x="130" y="410" width="200" height="195" fill="#cce5ff" stroke="#333" stroke-width="1.8" rx="3"/>
<text x="230" y="436" text-anchor="middle" font-size="13" fill="#111" font-weight="bold" font-style="normal">desc</text>
<text x="230" y="454" text-anchor="middle" font-size="10" fill="#555" font-weight="normal" font-style="italic">DescTable · ram</text>
<line x1="138" y1="460" x2="322" y2="460" stroke="#aaa" stroke-width="1"/>
<rect x="410" y="90" width="175" height="195" fill="#fff3cd" stroke="#333" stroke-width="1.8" rx="3"/>
<text x="497" y="116" text-anchor="middle" font-size="13" fill="#111" font-weight="bold" font-style="normal">ctrl</text>
<text x="497" y="134" text-anchor="middle" font-size="10" fill="#555" font-weight="normal" font-style="italic">TransferFsm · fsm</text>
<line x1="418" y1="140" x2="577" y2="140" stroke="#aaa" stroke-width="1"/>
<rect x="410" y="370" width="190" height="195" fill="#f8d7da" stroke="#333" stroke-width="1.8" rx="3"/>
<text x="505" y="396" text-anchor="middle" font-size="13" fill="#111" font-weight="bold" font-style="normal">arb</text>
<text x="505" y="414" text-anchor="middle" font-size="10" fill="#555" font-weight="normal" font-style="italic">MemArbiter · arbiter</text>
<line x1="418" y1="420" x2="592" y2="420" stroke="#aaa" stroke-width="1"/>
<rect x="680" y="160" width="165" height="195" fill="#e2d9f3" stroke="#333" stroke-width="1.8" rx="3"/>
<text x="762" y="186" text-anchor="middle" font-size="13" fill="#111" font-weight="bold" font-style="normal">read_ctr</text>
<text x="762" y="204" text-anchor="middle" font-size="10" fill="#555" font-weight="normal" font-style="italic">BeatCounter</text>
<line x1="688" y1="210" x2="837" y2="210" stroke="#aaa" stroke-width="1"/>
<rect x="950" y="140" width="250" height="195" fill="#d1ecf1" stroke="#333" stroke-width="1.8" rx="3"/>
<text x="1075" y="166" text-anchor="middle" font-size="13" fill="#111" font-weight="bold" font-style="normal">wb</text>
<text x="1075" y="184" text-anchor="middle" font-size="10" fill="#555" font-weight="normal" font-style="italic">WriteBuffer · fifo</text>
<line x1="958" y1="190" x2="1192" y2="190" stroke="#aaa" stroke-width="1"/>
<rect x="950" y="490" width="165" height="195" fill="#e2d9f3" stroke="#333" stroke-width="1.8" rx="3"/>
<text x="1032" y="516" text-anchor="middle" font-size="13" fill="#111" font-weight="bold" font-style="normal">beat</text>
<text x="1032" y="534" text-anchor="middle" font-size="10" fill="#555" font-weight="normal" font-style="italic">BeatCounter</text>
<line x1="958" y1="540" x2="1107" y2="540" stroke="#aaa" stroke-width="1"/>
<line x1="55" y1="110" x2="65" y2="110" stroke="#555" stroke-width="1.2"/>
<text x="51" y="114" text-anchor="end" font-size="10" fill="#333" font-weight="normal" font-style="normal">clk</text>
<line x1="55" y1="138" x2="65" y2="138" stroke="#555" stroke-width="1.2"/>
<text x="51" y="142" text-anchor="end" font-size="10" fill="#333" font-weight="normal" font-style="normal">rst</text>
<line x1="55" y1="190" x2="65" y2="190" stroke="#555" stroke-width="1.2"/>
<text x="51" y="194" text-anchor="end" font-size="10" fill="#333" font-weight="normal" font-style="normal">apb_sel</text>
<line x1="55" y1="215" x2="65" y2="215" stroke="#555" stroke-width="1.2"/>
<text x="51" y="219" text-anchor="end" font-size="10" fill="#333" font-weight="normal" font-style="normal">apb_enable</text>
<line x1="55" y1="240" x2="65" y2="240" stroke="#555" stroke-width="1.2"/>
<text x="51" y="244" text-anchor="end" font-size="10" fill="#333" font-weight="normal" font-style="normal">apb_write</text>
<line x1="55" y1="265" x2="65" y2="265" stroke="#555" stroke-width="1.2"/>
<text x="51" y="269" text-anchor="end" font-size="10" fill="#333" font-weight="normal" font-style="normal">apb_addr[2:0]</text>
<line x1="55" y1="290" x2="65" y2="290" stroke="#555" stroke-width="1.2"/>
<text x="51" y="294" text-anchor="end" font-size="10" fill="#333" font-weight="normal" font-style="normal">apb_wdata[31:0]</text>
<line x1="55" y1="590" x2="65" y2="590" stroke="#555" stroke-width="1.2"/>
<text x="51" y="594" text-anchor="end" font-size="10" fill="#333" font-weight="normal" font-style="normal">mem_rd_data[31:0]</text>
<line x1="55" y1="618" x2="65" y2="618" stroke="#555" stroke-width="1.2"/>
<text x="51" y="622" text-anchor="end" font-size="10" fill="#333" font-weight="normal" font-style="normal">mem_rd_ready</text>
<line x1="55" y1="700" x2="65" y2="700" stroke="#555" stroke-width="1.2"/>
<text x="51" y="704" text-anchor="end" font-size="10" fill="#333" font-weight="normal" font-style="normal">mem_wr_ready</text>
<line x1="1635" y1="190" x2="1645" y2="190" stroke="#555" stroke-width="1.2"/>
<text x="1649" y="194" text-anchor="start" font-size="10" fill="#333" font-weight="normal" font-style="normal">apb_rdata[31:0]</text>
<line x1="1635" y1="220" x2="1645" y2="220" stroke="#555" stroke-width="1.2"/>
<text x="1649" y="224" text-anchor="start" font-size="10" fill="#333" font-weight="normal" font-style="normal">apb_ready</text>
<line x1="1635" y1="380" x2="1645" y2="380" stroke="#555" stroke-width="1.2"/>
<text x="1649" y="384" text-anchor="start" font-size="10" fill="#333" font-weight="normal" font-style="normal">irq</text>
<line x1="1635" y1="410" x2="1645" y2="410" stroke="#555" stroke-width="1.2"/>
<text x="1649" y="414" text-anchor="start" font-size="10" fill="#333" font-weight="normal" font-style="normal">busy</text>
<line x1="1635" y1="560" x2="1645" y2="560" stroke="#555" stroke-width="1.2"/>
<text x="1649" y="564" text-anchor="start" font-size="10" fill="#333" font-weight="normal" font-style="normal">mem_rd_valid</text>
<line x1="1635" y1="590" x2="1645" y2="590" stroke="#555" stroke-width="1.2"/>
<text x="1649" y="594" text-anchor="start" font-size="10" fill="#333" font-weight="normal" font-style="normal">mem_rd_addr[31:0]</text>
<line x1="1635" y1="660" x2="1645" y2="660" stroke="#555" stroke-width="1.2"/>
<text x="1649" y="664" text-anchor="start" font-size="10" fill="#333" font-weight="normal" font-style="normal">mem_wr_valid</text>
<line x1="1635" y1="690" x2="1645" y2="690" stroke="#555" stroke-width="1.2"/>
<text x="1649" y="694" text-anchor="start" font-size="10" fill="#333" font-weight="normal" font-style="normal">mem_wr_addr[31:0]</text>
<line x1="1635" y1="720" x2="1645" y2="720" stroke="#555" stroke-width="1.2"/>
<text x="1649" y="724" text-anchor="start" font-size="10" fill="#333" font-weight="normal" font-style="normal">mem_wr_data[31:0]</text>
<line x1="120" y1="116.0" x2="130" y2="116.0" stroke="#999" stroke-width="1.2"/>
<text x="117" y="120.0" text-anchor="end" font-size="10" fill="#999" font-weight="normal" font-style="normal">clk</text>
<line x1="120" y1="142.0" x2="130" y2="142.0" stroke="#999" stroke-width="1.2"/>
<text x="117" y="146.0" text-anchor="end" font-size="10" fill="#999" font-weight="normal" font-style="normal">rst</text>
<line x1="120" y1="194.0" x2="130" y2="194.0" stroke="#333" stroke-width="1.2"/>
<text x="117" y="198.0" text-anchor="end" font-size="10" fill="#333" font-weight="normal" font-style="normal">write_en</text>
<line x1="120" y1="225.20000000000002" x2="130" y2="225.20000000000002" stroke="#333" stroke-width="1.2"/>
<text x="117" y="229.20000000000002" text-anchor="end" font-size="10" fill="#333" font-weight="normal" font-style="normal">write_addr</text>
<line x1="120" y1="259.0" x2="130" y2="259.0" stroke="#1a6bcc" stroke-width="1.2"/>
<text x="117" y="263.0" text-anchor="end" font-size="10" fill="#1a6bcc" font-weight="normal" font-style="normal">write_data</text>
<line x1="120" y1="298.0" x2="130" y2="298.0" stroke="#333" stroke-width="1.2"/>
<text x="117" y="302.0" text-anchor="end" font-size="10" fill="#333" font-weight="normal" font-style="normal">read_addr</text>
<line x1="325" y1="188.8" x2="335" y2="188.8" stroke="#1a6bcc" stroke-width="1.2"/>
<text x="338" y="192.8" text-anchor="start" font-size="10" fill="#1a6bcc" font-weight="normal" font-style="normal">read_data</text>
<line x1="325" y1="259.0" x2="335" y2="259.0" stroke="#1a6bcc" stroke-width="1.2"/>
<text x="338" y="263.0" text-anchor="start" font-size="10" fill="#1a6bcc" font-weight="normal" font-style="normal">read_data₁</text>
<line x1="120" y1="434.0" x2="130" y2="434.0" stroke="#999" stroke-width="1.2"/>
<text x="117" y="438.0" text-anchor="end" font-size="10" fill="#999" font-weight="normal" font-style="normal">clk</text>
<line x1="120" y1="486.0" x2="130" y2="486.0" stroke="#333" stroke-width="1.2"/>
<text x="117" y="490.0" text-anchor="end" font-size="10" fill="#333" font-weight="normal" font-style="normal">wr_en</text>
<line x1="120" y1="514.0" x2="130" y2="514.0" stroke="#333" stroke-width="1.2"/>
<text x="117" y="518.0" text-anchor="end" font-size="10" fill="#333" font-weight="normal" font-style="normal">wr_addr</text>
<line x1="120" y1="546.0" x2="130" y2="546.0" stroke="#1a6bcc" stroke-width="1.2"/>
<text x="117" y="550.0" text-anchor="end" font-size="10" fill="#1a6bcc" font-weight="normal" font-style="normal">wr_data</text>
<line x1="120" y1="574.0" x2="130" y2="574.0" stroke="#333" stroke-width="1.2"/>
<text x="117" y="578.0" text-anchor="end" font-size="10" fill="#333" font-weight="normal" font-style="normal">rd_en</text>
<line x1="325" y1="500.0" x2="335" y2="500.0" stroke="#1a6bcc" stroke-width="1.2"/>
<text x="338" y="504.0" text-anchor="start" font-size="10" fill="#1a6bcc" font-weight="normal" font-style="normal">rd_data</text>
<line x1="400" y1="111.0" x2="410" y2="111.0" stroke="#999" stroke-width="1.2"/>
<text x="397" y="115.0" text-anchor="end" font-size="10" fill="#999" font-weight="normal" font-style="normal">clk</text>
<line x1="400" y1="133.75" x2="410" y2="133.75" stroke="#999" stroke-width="1.2"/>
<text x="397" y="137.75" text-anchor="end" font-size="10" fill="#999" font-weight="normal" font-style="normal">rst</text>
<line x1="400" y1="174.0" x2="410" y2="174.0" stroke="#333" stroke-width="1.2"/>
<text x="397" y="178.0" text-anchor="end" font-size="10" fill="#333" font-weight="normal" font-style="normal">start</text>
<line x1="400" y1="216.0" x2="410" y2="216.0" stroke="#333" stroke-width="1.2"/>
<text x="397" y="220.0" text-anchor="end" font-size="10" fill="#333" font-weight="normal" font-style="normal">all_done</text>
<line x1="605" y1="156.5" x2="615" y2="156.5" stroke="#1a6bcc" stroke-width="1.2"/>
<text x="618" y="160.5" text-anchor="start" font-size="10" fill="#1a6bcc" font-weight="normal" font-style="normal">active</text>
<line x1="605" y1="216.0" x2="615" y2="216.0" stroke="#1a6bcc" stroke-width="1.2"/>
<text x="618" y="220.0" text-anchor="start" font-size="10" fill="#1a6bcc" font-weight="normal" font-style="normal">fire_irq</text>
<line x1="400" y1="392.8" x2="410" y2="392.8" stroke="#999" stroke-width="1.2"/>
<text x="397" y="396.8" text-anchor="end" font-size="10" fill="#999" font-weight="normal" font-style="normal">clk</text>
<line x1="400" y1="417.5" x2="410" y2="417.5" stroke="#999" stroke-width="1.2"/>
<text x="397" y="421.5" text-anchor="end" font-size="10" fill="#999" font-weight="normal" font-style="normal">rst</text>
<line x1="400" y1="465.0" x2="410" y2="465.0" stroke="#333" stroke-width="1.2"/>
<text x="397" y="469.0" text-anchor="end" font-size="10" fill="#333" font-weight="normal" font-style="normal">read_wants</text>
<line x1="400" y1="503.0" x2="410" y2="503.0" stroke="#333" stroke-width="1.2"/>
<text x="397" y="507.0" text-anchor="end" font-size="10" fill="#333" font-weight="normal" font-style="normal">write_wants</text>
<line x1="605" y1="436.5" x2="615" y2="436.5" stroke="#1a6bcc" stroke-width="1.2"/>
<text x="618" y="440.5" text-anchor="start" font-size="10" fill="#1a6bcc" font-weight="normal" font-style="normal">rd_grant</text>
<line x1="605" y1="484.0" x2="615" y2="484.0" stroke="#1a6bcc" stroke-width="1.2"/>
<text x="618" y="488.0" text-anchor="start" font-size="10" fill="#1a6bcc" font-weight="normal" font-style="normal">wr_grant</text>
<line x1="605" y1="525.8" x2="615" y2="525.8" stroke="#1a6bcc" stroke-width="1.2"/>
<text x="618" y="529.8" text-anchor="start" font-size="10" fill="#1a6bcc" font-weight="normal" font-style="normal">grant_valid</text>
<line x1="670" y1="179.8" x2="680" y2="179.8" stroke="#999" stroke-width="1.2"/>
<text x="667" y="183.8" text-anchor="end" font-size="10" fill="#999" font-weight="normal" font-style="normal">clk</text>
<line x1="670" y1="201.25" x2="680" y2="201.25" stroke="#999" stroke-width="1.2"/>
<text x="667" y="205.25" text-anchor="end" font-size="10" fill="#999" font-weight="normal" font-style="normal">rst</text>
<line x1="670" y1="245.8" x2="680" y2="245.8" stroke="#333" stroke-width="1.2"/>
<text x="667" y="249.8" text-anchor="end" font-size="10" fill="#333" font-weight="normal" font-style="normal">inc</text>
<line x1="670" y1="288.70000000000005" x2="680" y2="288.70000000000005" stroke="#333" stroke-width="1.2"/>
<text x="667" y="292.70000000000005" text-anchor="end" font-size="10" fill="#333" font-weight="normal" font-style="normal">clear</text>
<line x1="875" y1="226.0" x2="885" y2="226.0" stroke="#1a6bcc" stroke-width="1.2"/>
<text x="888" y="230.0" text-anchor="start" font-size="10" fill="#1a6bcc" font-weight="normal" font-style="normal">value</text>
<line x1="875" y1="283.75" x2="885" y2="283.75" stroke="#1a6bcc" stroke-width="1.2"/>
<text x="888" y="287.75" text-anchor="start" font-size="10" fill="#1a6bcc" font-weight="normal" font-style="normal">at_max</text>
<line x1="940" y1="160.0" x2="950" y2="160.0" stroke="#999" stroke-width="1.2"/>
<text x="937" y="164.0" text-anchor="end" font-size="10" fill="#999" font-weight="normal" font-style="normal">clk</text>
<line x1="940" y1="185.0" x2="950" y2="185.0" stroke="#999" stroke-width="1.2"/>
<text x="937" y="189.0" text-anchor="end" font-size="10" fill="#999" font-weight="normal" font-style="normal">rst</text>
<line x1="940" y1="227.5" x2="950" y2="227.5" stroke="#333" stroke-width="1.2"/>
<text x="937" y="231.5" text-anchor="end" font-size="10" fill="#333" font-weight="normal" font-style="normal">push_valid</text>
<line x1="940" y1="265.0" x2="950" y2="265.0" stroke="#1a6bcc" stroke-width="1.2"/>
<text x="937" y="269.0" text-anchor="end" font-size="10" fill="#1a6bcc" font-weight="normal" font-style="normal">push_data</text>
<line x1="940" y1="310.0" x2="950" y2="310.0" stroke="#333" stroke-width="1.2"/>
<text x="937" y="314.0" text-anchor="end" font-size="10" fill="#333" font-weight="normal" font-style="normal">pop_ready</text>
<line x1="940" y1="347.5" x2="950" y2="347.5" stroke="#333" stroke-width="1.2"/>
<text x="937" y="351.5" text-anchor="end" font-size="10" fill="#333" font-weight="normal" font-style="normal">mem_wr_rdy</text>
<line x1="1145" y1="215.0" x2="1155" y2="215.0" stroke="#1a6bcc" stroke-width="1.2"/>
<text x="1158" y="219.0" text-anchor="start" font-size="10" fill="#1a6bcc" font-weight="normal" font-style="normal">push_ready</text>
<line x1="1145" y1="265.0" x2="1155" y2="265.0" stroke="#1a6bcc" stroke-width="1.2"/>
<text x="1158" y="269.0" text-anchor="start" font-size="10" fill="#1a6bcc" font-weight="normal" font-style="normal">pop_valid</text>
<line x1="1145" y1="315.0" x2="1155" y2="315.0" stroke="#1a6bcc" stroke-width="1.2"/>
<text x="1158" y="319.0" text-anchor="start" font-size="10" fill="#1a6bcc" font-weight="normal" font-style="normal">pop_data</text>
<line x1="940" y1="509.8" x2="950" y2="509.8" stroke="#999" stroke-width="1.2"/>
<text x="937" y="513.8" text-anchor="end" font-size="10" fill="#999" font-weight="normal" font-style="normal">clk</text>
<line x1="940" y1="531.25" x2="950" y2="531.25" stroke="#999" stroke-width="1.2"/>
<text x="937" y="535.25" text-anchor="end" font-size="10" fill="#999" font-weight="normal" font-style="normal">rst</text>
<line x1="940" y1="575.8" x2="950" y2="575.8" stroke="#333" stroke-width="1.2"/>
<text x="937" y="579.8" text-anchor="end" font-size="10" fill="#333" font-weight="normal" font-style="normal">inc</text>
<line x1="940" y1="618.7" x2="950" y2="618.7" stroke="#333" stroke-width="1.2"/>
<text x="937" y="622.7" text-anchor="end" font-size="10" fill="#333" font-weight="normal" font-style="normal">clear</text>
<line x1="1145" y1="556.0" x2="1155" y2="556.0" stroke="#1a6bcc" stroke-width="1.2"/>
<text x="1158" y="560.0" text-anchor="start" font-size="10" fill="#1a6bcc" font-weight="normal" font-style="normal">value</text>
<line x1="1145" y1="613.75" x2="1155" y2="613.75" stroke="#1a6bcc" stroke-width="1.2"/>
<text x="1158" y="617.75" text-anchor="start" font-size="10" fill="#1a6bcc" font-weight="normal" font-style="normal">at_max</text>
<polyline points="65,110 100,110 100,116 120,116" stroke="#bbb" stroke-width="1.0" fill="none" stroke-dasharray="4,3" marker-end="url(#ad)"/>
<polyline points="65,110 100,110 100,434 120,434" stroke="#bbb" stroke-width="1.0" fill="none" stroke-dasharray="4,3" marker-end="url(#ad)"/>
<polyline points="65,110 100,110 100,111 400,111" stroke="#bbb" stroke-width="1.0" fill="none" stroke-dasharray="4,3" marker-end="url(#ad)"/>
<polyline points="65,110 100,110 100,392 400,392" stroke="#bbb" stroke-width="1.0" fill="none" stroke-dasharray="4,3" marker-end="url(#ad)"/>
<polyline points="65,110 100,110 100,179 670,179" stroke="#bbb" stroke-width="1.0" fill="none" stroke-dasharray="4,3" marker-end="url(#ad)"/>
<polyline points="65,110 100,110 100,160 940,160" stroke="#bbb" stroke-width="1.0" fill="none" stroke-dasharray="4,3" marker-end="url(#ad)"/>
<polyline points="65,110 100,110 100,509 940,509" stroke="#bbb" stroke-width="1.0" fill="none" stroke-dasharray="4,3" marker-end="url(#ad)"/>
<polyline points="65,138 111,138 111,142 120,142" stroke="#bbb" stroke-width="1.0" fill="none" stroke-dasharray="4,3" marker-end="url(#ad)"/>
<polyline points="65,138 111,138 111,133 400,133" stroke="#bbb" stroke-width="1.0" fill="none" stroke-dasharray="4,3" marker-end="url(#ad)"/>
<polyline points="65,138 111,138 111,417 400,417" stroke="#bbb" stroke-width="1.0" fill="none" stroke-dasharray="4,3" marker-end="url(#ad)"/>
<polyline points="65,138 111,138 111,201 670,201" stroke="#bbb" stroke-width="1.0" fill="none" stroke-dasharray="4,3" marker-end="url(#ad)"/>
<polyline points="65,138 111,138 111,185 940,185" stroke="#bbb" stroke-width="1.0" fill="none" stroke-dasharray="4,3" marker-end="url(#ad)"/>
<polyline points="65,138 111,138 111,531 940,531" stroke="#bbb" stroke-width="1.0" fill="none" stroke-dasharray="4,3" marker-end="url(#ad)"/>
<text x="97" y="125" text-anchor="end" font-size="9" fill="#999" font-weight="normal" font-style="normal">clk</text>
<text x="113" y="150" text-anchor="start" font-size="9" fill="#999" font-weight="normal" font-style="normal">rst</text>
<polyline points="65,190 108,190 108,194 120,194" stroke="#555" stroke-width="1.4" fill="none"  marker-end="url(#a)"/>
<polyline points="65,265 108,265 108,225 120,225" stroke="#555" stroke-width="1.4" fill="none"  marker-end="url(#a)"/>
<polyline points="65,290 108,290 108,259 120,259" stroke="#555" stroke-width="1.4" fill="none"  marker-end="url(#a)"/>
<text x="105" y="235" text-anchor="end" font-size="9" fill="#777" font-weight="normal" font-style="italic">APB</text>
<polyline points="65,290 108,290 108,546 120,546" stroke="#555" stroke-width="1.4" fill="none"  marker-end="url(#a)"/>
<polyline points="65,265 108,265 108,514 120,514" stroke="#555" stroke-width="1.4" fill="none"  marker-end="url(#a)"/>
<polyline points="65,190 108,190 108,486 120,486" stroke="#555" stroke-width="1.4" fill="none"  marker-end="url(#a)"/>
<polyline points="65,265 108,265 108,298 120,298" stroke="#555" stroke-width="1.4" fill="none"  marker-end="url(#a)"/>
<polyline points="65,190 395,190 395,174 400,174" stroke="#555" stroke-width="1.4" fill="none" stroke-dasharray="5,2" marker-end="url(#a)"/>
<text x="397" y="167.0" text-anchor="start" font-size="9" fill="#777" font-weight="normal" font-style="normal">start_pulse (let)</text>
<polyline points="335,188 343,188 343,205 1635,205 1635,190" stroke="#1a6bcc" stroke-width="1.5" fill="none"  marker-end="url(#ab)"/>
<text x="985" y="198" text-anchor="middle" font-size="9" fill="#1a6bcc" font-weight="normal" font-style="normal">read_data → apb_rdata</text>
<polyline points="325,210 1665,210 1665,220 1635,220" stroke="#1a6bcc" stroke-width="1.5" fill="none"  marker-end="url(#ab)"/>
<text x="1667" y="214" text-anchor="middle" font-size="9" fill="#1a6bcc" font-weight="normal" font-style="normal">apb_ready=1</text>
<polyline points="615,156 1190,156 1190,410 1635,410" stroke="#1a6bcc" stroke-width="1.5" fill="none"  marker-end="url(#ab)"/>
<text x="1192" y="283.0" text-anchor="start" font-size="9" fill="#1a6bcc" font-weight="normal" font-style="normal">active→busy</text>
<polyline points="615,216 1205,216 1205,380 1635,380" stroke="#1a6bcc" stroke-width="1.5" fill="none"  marker-end="url(#ab)"/>
<text x="1208" y="298.0" text-anchor="start" font-size="9" fill="#1a6bcc" font-weight="normal" font-style="normal">fire_irq→irq</text>
<polyline points="615,156 630,156 630,530 227,530 227,610" stroke="#555" stroke-width="1.3" fill="none" stroke-dasharray="5,2" marker-end="url(#a)"/>
<text x="230" y="542" text-anchor="start" font-size="9" fill="#777" font-weight="normal" font-style="normal">fetch ctrl</text>
<polyline points="335,500 350,500 350,400 777,400 777,325" stroke="#1a6bcc" stroke-width="1.5" fill="none"  marker-end="url(#ab)"/>
<text x="556" y="393" text-anchor="middle" font-size="9" fill="#1a6bcc" font-weight="normal" font-style="normal">desc_rdata → desc_r</text>
<polyline points="885,283 895,283 895,465 605,465 400,465" stroke="#555" stroke-width="1.4" fill="none"  marker-end="url(#a)"/>
<text x="897" y="374.0" text-anchor="start" font-size="9" fill="#555" font-weight="normal" font-style="normal">read_wants</text>
<polyline points="1155,265 900,265 900,503 400,503" stroke="#555" stroke-width="1.4" fill="none"  marker-end="url(#a)"/>
<text x="902" y="384.0" text-anchor="end" font-size="9" fill="#555" font-weight="normal" font-style="normal">write_wants</text>
<polyline points="1155,613 1167,613 1167,78 550,78 550,265" stroke="#555" stroke-width="1.4" fill="none" stroke-dasharray="5,2" marker-end="url(#a)"/>
<text x="852.0" y="71" text-anchor="middle" font-size="9" fill="#555" font-weight="normal" font-style="normal">all_done</text>
<polyline points="615,436 625,436 625,550 1635,550 1635,560" stroke="#1a6bcc" stroke-width="1.5" fill="none"  marker-end="url(#ab)"/>
<text x="1125" y="543" text-anchor="middle" font-size="9" fill="#1a6bcc" font-weight="normal" font-style="normal">rd_grant → mem_rd_valid</text>
<polyline points="615,436 625,436 625,245 670,245" stroke="#555" stroke-width="1.4" fill="none"  marker-end="url(#a)"/>
<text x="627" y="341.0" text-anchor="start" font-size="9" fill="#555" font-weight="normal" font-style="normal">read_fired</text>
<polyline points="615,484 635,484 635,650 1635,650 1635,660" stroke="#1a6bcc" stroke-width="1.5" fill="none"  marker-end="url(#ab)"/>
<text x="1125" y="643" text-anchor="middle" font-size="9" fill="#1a6bcc" font-weight="normal" font-style="normal">wr_grant → mem_wr_valid</text>
<polyline points="615,484 635,484 635,310 940,310" stroke="#555" stroke-width="1.4" fill="none"  marker-end="url(#a)"/>
<polyline points="885,226 893,226 893,580 1635,580 1635,590" stroke="#1a6bcc" stroke-width="1.5" fill="none"  marker-end="url(#ab)"/>
<text x="1260" y="573" text-anchor="middle" font-size="9" fill="#1a6bcc" font-weight="normal" font-style="normal">read_val → mem_rd_addr</text>
<polyline points="625,245 625,227 940,227" stroke="#555" stroke-width="1.4" fill="none"  marker-end="url(#a)"/>
<polyline points="65,590 1185,590 1185,605 1153,605 1153,265 940,265" stroke="#1a6bcc" stroke-width="1.5" fill="none"  marker-end="url(#ab)"/>
<text x="1157" y="427.0" text-anchor="start" font-size="9" fill="#1a6bcc" font-weight="normal" font-style="normal">mem_rd_data</text>
<polyline points="65,700 1195,700 1195,347 940,347" stroke="#555" stroke-width="1.4" fill="none"  marker-end="url(#a)"/>
<polyline points="1155,265 1170,265 1170,575 940,575" stroke="#555" stroke-width="1.4" fill="none"  marker-end="url(#a)"/>
<text x="1172" y="430.0" text-anchor="start" font-size="9" fill="#555" font-weight="normal" font-style="normal">beat_fired</text>
<polyline points="1155,315 1185,315 1185,720 1635,720" stroke="#1a6bcc" stroke-width="1.5" fill="none"  marker-end="url(#ab)"/>
<text x="1188" y="517.0" text-anchor="start" font-size="9" fill="#1a6bcc" font-weight="normal" font-style="normal">pop_data → mem_wr_data</text>
<polyline points="1155,556 1173,556 1173,690 1635,690" stroke="#1a6bcc" stroke-width="1.5" fill="none"  marker-end="url(#ab)"/>
<text x="1175" y="623.0" text-anchor="start" font-size="9" fill="#1a6bcc" font-weight="normal" font-style="normal">beat_val → mem_wr_addr</text>
<polyline points="1155,215 1200,215 1200,288 670,288" stroke="#555" stroke-width="1.4" fill="none"  marker-end="url(#a)"/>
<text x="1202" y="251.0" text-anchor="start" font-size="9" fill="#555" font-weight="normal" font-style="normal">push_ready
(backpressure)</text>
<polyline points="65,618 1205,618 1205,296 670,296" stroke="#555" stroke-width="1.4" fill="none"  marker-end="url(#a)"/>
<rect x="65" y="910" width="310" height="75" fill="#fff" stroke="#ccc" stroke-width="1" rx="4"/>
<text x="75" y="928" text-anchor="start" font-size="11" fill="#111" font-weight="bold" font-style="normal">Legend</text>
<line x1="75" y1="944" x2="125" y2="944" stroke="#555" stroke-width="1.5" marker-end="url(#a)"/>
<text x="130" y="949" text-anchor="start" font-size="10" fill="#111" font-weight="normal" font-style="normal">control / address signal</text>
<line x1="75" y1="966" x2="125" y2="966" stroke="#1a6bcc" stroke-width="1.5" marker-end="url(#ab)"/>
<text x="130" y="971" text-anchor="start" font-size="10" fill="#1a6bcc" font-weight="normal" font-style="normal">data signal</text>
</svg>